{
	"asset":{
		"generator":"Khronos glTF Blender I/O v3.6.27",
		"version":"2.0"
	},
	"extensionsUsed":[
		"KHR_lights_punctual",
		"KHR_materials_specular",
		"KHR_materials_ior"
	],
	"extensionsRequired":[
		"KHR_lights_punctual"
	],
	"extensions":{
		"KHR_lights_punctual":{
			"lights":[
				{
					"color":[
						1,
						1,
						1
					],
					"intensity":144145.37463039355,
					"type":"point",
					"name":"Light"
				}
			]
		}
	},
	"scene":0,
	"scenes":[
		{
			"name":"Scene",
			"nodes":[
				0,
				1,
				2
			]
		}
	],
	"nodes":[
		{
			"extensions":{
				"KHR_lights_punctual":{
					"light":0
				}
			},
			"name":"Light",
			"rotation":[
				-0.28416648507118225,
				0.7269421815872192,
				0.3420342206954956,
				0.5232753753662109
			],
			"translation":[
				1.5,
				8.389999389648438,
				-2.009999990463257
			]
		},
		{
			"camera":0,
			"name":"Camera",
			"rotation":[
				-0.20262326300144196,
				0.43210718035697937,
				0.10028962790966034,
				0.8730230331420898
			],
			"translation":[
				0.4883689284324646,
				0.35880813002586365,
				0.3443344235420227
			]
		},
		{
			"mesh":0,
			"name":"TQ_ARD-node",
			"rotation":[
				0,
				1,
				0,
				7.549790126404332e-08
			],
			"translation":[
				0,
				0.09216809272766113,
				0
			]
		}
	],
	"cameras":[
		{
			"name":"Camera",
			"perspective":{
				"aspectRatio":1,
				"yfov":0.6911112070083618,
				"zfar":100,
				"znear":0.10000000149011612
			},
			"type":"perspective"
		}
	],
	"materials":[
		{
			"doubleSided":true,
			"extensions":{
				"KHR_materials_specular":{
					"specularColorFactor":[
						0,
						0,
						0
					]
				},
				"KHR_materials_ior":{
					"ior":0
				}
			},
			"name":"TQ_ARD_front",
			"pbrMetallicRoughness":{
				"baseColorTexture":{
					"index":0
				},
				"metallicFactor":0,
				"roughnessFactor":0.5
			}
		},
		{
			"doubleSided":true,
			"extensions":{
				"KHR_materials_specular":{
					"specularColorFactor":[
						0,
						0,
						0
					]
				},
				"KHR_materials_ior":{
					"ior":0
				}
			},
			"name":"back-dil",
			"pbrMetallicRoughness":{
				"baseColorFactor":[
					0.5383538007736206,
					0.3512982726097107,
					0.16828669607639313,
					1
				],
				"metallicFactor":0,
				"roughnessFactor":0.5
			}
		},
		{
			"doubleSided":true,
			"extensions":{
				"KHR_materials_specular":{
					"specularColorFactor":[
						0,
						0,
						0
					]
				},
				"KHR_materials_ior":{
					"ior":0
				}
			},
			"name":"TQ_ARD_edge",
			"pbrMetallicRoughness":{
				"baseColorTexture":{
					"index":1
				},
				"metallicFactor":0,
				"roughnessFactor":0.5
			}
		}
	],
	"meshes":[
		{
			"name":"TQ_ARD-geom",
			"primitives":[
				{
					"attributes":{
						"POSITION":0,
						"NORMAL":1,
						"TEXCOORD_0":2
					},
					"indices":3,
					"material":0
				},
				{
					"attributes":{
						"POSITION":4,
						"NORMAL":5,
						"TEXCOORD_0":6
					},
					"indices":7,
					"material":1
				},
				{
					"attributes":{
						"POSITION":8,
						"NORMAL":9,
						"TEXCOORD_0":10
					},
					"indices":11,
					"material":2
				}
			]
		}
	],
	"textures":[
		{
			"sampler":0,
			"source":0
		},
		{
			"sampler":0,
			"source":1
		}
	],
	"images":[
		{
			"bufferView":4,
			"mimeType":"image/jpeg",
			"name":"1-01"
		},
		{
			"bufferView":13,
			"mimeType":"image/png",
			"name":"TQ_ARD-I1.png"
		}
	],
	"accessors":[
		{
			"bufferView":0,
			"componentType":5126,
			"count":1156,
			"max":[
				0.1943736970424652,
				0.09768538922071457,
				0.06692201644182205
			],
			"min":[
				-0.203803151845932,
				-0.09104011952877045,
				-0.06625726819038391
			],
			"type":"VEC3"
		},
		{
			"bufferView":1,
			"componentType":5126,
			"count":1156,
			"type":"VEC3"
		},
		{
			"bufferView":2,
			"componentType":5126,
			"count":1156,
			"type":"VEC2"
		},
		{
			"bufferView":3,
			"componentType":5123,
			"count":3363,
			"type":"SCALAR"
		},
		{
			"bufferView":5,
			"componentType":5126,
			"count":1026,
			"max":[
				0.19278621673583984,
				0.09609785676002502,
				0.06533164530992508
			],
			"min":[
				-0.20372197031974792,
				-0.09047189354896545,
				-0.06466697156429291
			],
			"type":"VEC3"
		},
		{
			"bufferView":6,
			"componentType":5126,
			"count":1026,
			"type":"VEC3"
		},
		{
			"bufferView":7,
			"componentType":5126,
			"count":1026,
			"type":"VEC2"
		},
		{
			"bufferView":8,
			"componentType":5123,
			"count":3372,
			"type":"SCALAR"
		},
		{
			"bufferView":9,
			"componentType":5126,
			"count":1454,
			"max":[
				0.1943736970424652,
				0.09768538922071457,
				0.06692200899124146
			],
			"min":[
				-0.20380309224128723,
				-0.09104011952877045,
				-0.06625726819038391
			],
			"type":"VEC3"
		},
		{
			"bufferView":10,
			"componentType":5126,
			"count":1454,
			"type":"VEC3"
		},
		{
			"bufferView":11,
			"componentType":5126,
			"count":1454,
			"type":"VEC2"
		},
		{
			"bufferView":12,
			"componentType":5123,
			"count":3339,
			"type":"SCALAR"
		}
	],
	"bufferViews":[
		{
			"buffer":0,
			"byteLength":13872,
			"byteOffset":0,
			"target":34962
		},
		{
			"buffer":0,
			"byteLength":13872,
			"byteOffset":13872,
			"target":34962
		},
		{
			"buffer":0,
			"byteLength":9248,
			"byteOffset":27744,
			"target":34962
		},
		{
			"buffer":0,
			"byteLength":6726,
			"byteOffset":36992,
			"target":34963
		},
		{
			"buffer":0,
			"byteLength":526702,
			"byteOffset":43720
		},
		{
			"buffer":0,
			"byteLength":12312,
			"byteOffset":570424,
			"target":34962
		},
		{
			"buffer":0,
			"byteLength":12312,
			"byteOffset":582736,
			"target":34962
		},
		{
			"buffer":0,
			"byteLength":8208,
			"byteOffset":595048,
			"target":34962
		},
		{
			"buffer":0,
			"byteLength":6744,
			"byteOffset":603256,
			"target":34963
		},
		{
			"buffer":0,
			"byteLength":17448,
			"byteOffset":610000,
			"target":34962
		},
		{
			"buffer":0,
			"byteLength":17448,
			"byteOffset":627448,
			"target":34962
		},
		{
			"buffer":0,
			"byteLength":11632,
			"byteOffset":644896,
			"target":34962
		},
		{
			"buffer":0,
			"byteLength":6678,
			"byteOffset":656528,
			"target":34963
		},
		{
			"buffer":0,
			"byteLength":767,
			"byteOffset":663208
		}
	],
	"samplers":[
		{
			"magFilter":9729,
			"minFilter":9987
		}
	],
	"buffers":[
		{
			"byteLength":663976,
			"uri":"data:application/octet-stream;base64,"
		}
	]
}
